<svg width="823" height="208" viewBox="0 0 823 208" fill="none" xmlns="http://www.w3.org/2000/svg">
<g clip-path="url(#clip0_1085_2837)">
<path d="M66.0328 159.304L38.519 131.791V82.4409H66.0328V159.304Z" fill="#7A0000"/>
<path d="M135.734 164.807L108.221 192.321V54.9607H135.734V164.807Z" fill="#CC0000"/>
<path d="M100.884 194.155L73.3699 166.641V97.0973H100.884V194.155Z" fill="#CC0000"/>
<path d="M170.585 129.956L143.071 157.47V12.8242H170.585V129.956Z" fill="#CC0000"/>
<path d="M10.3635 103.635L103.635 10.3635L135.57 42.2984V31.9349L103.635 0L0 103.635L103.635 207.27L207.27 103.635L177.707 74.0715V84.435L196.907 103.635L103.635 196.907L10.3635 103.635Z" fill="url(#paint0_angular_1085_2837)"/>
<path d="M790.558 158.273C785.119 158.273 780.456 157.525 776.568 156.027C772.706 154.556 769.632 152.546 767.347 149.998C765.061 147.449 763.577 144.586 762.894 141.407L778.42 139.318C778.893 140.527 779.642 141.657 780.666 142.707C781.691 143.758 783.044 144.599 784.725 145.23C786.433 145.886 788.508 146.215 790.952 146.215C794.603 146.215 797.611 145.321 799.976 143.535C802.367 141.775 803.562 138.819 803.562 134.668V123.595H802.853C802.117 125.276 801.014 126.866 799.542 128.363C798.071 129.861 796.18 131.082 793.868 132.028C791.556 132.974 788.797 133.447 785.592 133.447C781.047 133.447 776.91 132.396 773.179 130.294C769.475 128.166 766.519 124.922 764.312 120.561C762.132 116.173 761.042 110.63 761.042 103.931C761.042 97.0739 762.158 91.3467 764.391 86.7492C766.624 82.1517 769.593 78.7101 773.297 76.4245C777.028 74.1389 781.113 72.9961 785.553 72.9961C788.942 72.9961 791.779 73.5741 794.065 74.73C796.35 75.8597 798.189 77.2783 799.582 78.986C801 80.6674 802.091 82.3225 802.853 83.9513H803.483V73.7842H820.152V134.905C820.152 140.054 818.891 144.363 816.369 147.83C813.847 151.298 810.353 153.899 805.887 155.633C801.447 157.393 796.337 158.273 790.558 158.273ZM790.912 120.836C793.618 120.836 795.904 120.167 797.769 118.827C799.661 117.461 801.106 115.516 802.104 112.994C803.128 110.446 803.641 107.399 803.641 103.852C803.641 100.305 803.142 97.2315 802.143 94.6306C801.145 92.0035 799.7 89.9675 797.808 88.5225C795.917 87.0776 793.618 86.3551 790.912 86.3551C788.154 86.3551 785.829 87.1039 783.937 88.6013C782.046 90.0725 780.614 92.1217 779.642 94.7489C778.67 97.376 778.184 100.41 778.184 103.852C778.184 107.346 778.67 110.367 779.642 112.916C780.64 115.438 782.072 117.395 783.937 118.787C785.829 120.153 788.154 120.836 790.912 120.836Z" fill="black"/>
<path d="M715.378 99.3201V134.314H698.591V73.7842H714.59V84.4636H715.3C716.639 80.9432 718.886 78.1584 722.038 76.1092C725.191 74.0338 729.013 72.9961 733.506 72.9961C737.709 72.9961 741.374 73.9156 744.5 75.7546C747.627 77.5936 750.057 80.2207 751.791 83.636C753.525 87.0251 754.391 91.0709 754.391 95.7735V134.314H737.604V98.7684C737.63 95.0641 736.685 92.1743 734.767 90.0988C732.849 87.9971 730.209 86.9462 726.846 86.9462C724.587 86.9462 722.59 87.4323 720.856 88.4043C719.148 89.3764 717.808 90.795 716.836 92.6603C715.891 94.4993 715.405 96.7192 715.378 99.3201Z" fill="black"/>
<path d="M666.09 73.7842V86.3945H629.638V73.7842H666.09ZM637.914 59.2824H654.701V115.714C654.701 117.264 654.937 118.472 655.41 119.339C655.883 120.18 656.54 120.771 657.381 121.112C658.248 121.454 659.246 121.625 660.376 121.625C661.164 121.625 661.952 121.559 662.74 121.428C663.528 121.27 664.133 121.152 664.553 121.073L667.193 133.565C666.352 133.828 665.17 134.13 663.646 134.471C662.123 134.839 660.271 135.062 658.09 135.141C654.044 135.299 650.498 134.76 647.45 133.526C644.429 132.291 642.078 130.373 640.396 127.772C638.715 125.171 637.887 121.887 637.914 117.92V59.2824Z" fill="black"/>
<path d="M585.985 99.3201V134.314H569.197V73.7842H585.197V84.4636H585.906C587.246 80.9432 589.492 78.1584 592.645 76.1092C595.797 74.0338 599.62 72.9961 604.112 72.9961C608.315 72.9961 611.98 73.9156 615.107 75.7546C618.233 77.5936 620.663 80.2207 622.397 83.636C624.131 87.0251 624.998 91.0709 624.998 95.7735V134.314H608.21V98.7684C608.237 95.0641 607.291 92.1743 605.373 90.0988C603.455 87.9971 600.815 86.9462 597.452 86.9462C595.193 86.9462 593.196 87.4323 591.462 88.4043C589.755 89.3764 588.415 90.795 587.443 92.6603C586.497 94.4993 586.011 96.7192 585.985 99.3201Z" fill="black"/>
<path d="M543.316 108.541V73.7842H560.104V134.314H543.986V123.319H543.356C541.99 126.866 539.717 129.716 536.538 131.87C533.386 134.025 529.537 135.102 524.992 135.102C520.946 135.102 517.387 134.182 514.313 132.343C511.239 130.504 508.835 127.89 507.101 124.501C505.394 121.112 504.527 117.053 504.5 112.325V73.7842H521.288V109.33C521.314 112.902 522.273 115.727 524.165 117.802C526.056 119.878 528.591 120.915 531.77 120.915C533.793 120.915 535.685 120.456 537.445 119.536C539.205 118.59 540.624 117.198 541.701 115.359C542.804 113.52 543.343 111.247 543.316 108.541Z" fill="black"/>
<path d="M468.128 135.496C462.006 135.496 456.713 134.196 452.246 131.595C447.807 128.967 444.378 125.316 441.961 120.639C439.544 115.937 438.336 110.485 438.336 104.285C438.336 98.0328 439.544 92.5683 441.961 87.892C444.378 83.1894 447.807 79.5377 452.246 76.9368C456.713 74.3097 462.006 72.9961 468.128 72.9961C474.249 72.9961 479.529 74.3097 483.969 76.9368C488.435 79.5377 491.877 83.1894 494.294 87.892C496.711 92.5683 497.919 98.0328 497.919 104.285C497.919 110.485 496.711 115.937 494.294 120.639C491.877 125.316 488.435 128.967 483.969 131.595C479.529 134.196 474.249 135.496 468.128 135.496ZM468.206 122.492C470.991 122.492 473.316 121.703 475.181 120.127C477.047 118.525 478.452 116.344 479.398 113.586C480.37 110.827 480.856 107.688 480.856 104.167C480.856 100.647 480.37 97.5074 479.398 94.7489C478.452 91.9904 477.047 89.8098 475.181 88.2073C473.316 86.6047 470.991 85.8034 468.206 85.8034C465.395 85.8034 463.031 86.6047 461.113 88.2073C459.221 89.8098 457.79 91.9904 456.818 94.7489C455.872 97.5074 455.399 100.647 455.399 104.167C455.399 107.688 455.872 110.827 456.818 113.586C457.79 116.344 459.221 118.525 461.113 120.127C463.031 121.703 465.395 122.492 468.206 122.492Z" fill="black"/>
<path d="M407.332 135.496C401.132 135.496 395.799 134.182 391.333 131.555C386.893 128.902 383.477 125.224 381.087 120.521C378.722 115.819 377.54 110.407 377.54 104.285C377.54 98.0853 378.735 92.6472 381.126 87.9708C383.543 83.2682 386.972 79.6034 391.411 76.9762C395.851 74.3228 401.132 72.9961 407.253 72.9961C412.534 72.9961 417.158 73.955 421.125 75.8728C425.092 77.7906 428.231 80.4834 430.543 83.9513C432.855 87.4191 434.129 91.4912 434.365 96.1675H418.524C418.077 93.1463 416.895 90.7162 414.977 88.8772C413.085 87.0119 410.603 86.0793 407.529 86.0793C404.928 86.0793 402.656 86.7886 400.712 88.2073C398.794 89.5997 397.296 91.6357 396.219 94.3154C395.142 96.9951 394.603 100.24 394.603 104.049C394.603 107.911 395.129 111.195 396.18 113.901C397.257 116.607 398.767 118.669 400.712 120.088C402.656 121.506 404.928 122.216 407.529 122.216C409.447 122.216 411.168 121.822 412.691 121.033C414.241 120.245 415.516 119.103 416.514 117.605C417.538 116.081 418.208 114.255 418.524 112.127H434.365C434.103 116.751 432.842 120.823 430.582 124.344C428.349 127.838 425.262 130.57 421.322 132.54C417.381 134.511 412.718 135.496 407.332 135.496Z" fill="black"/>
<path d="M346.536 135.496C340.336 135.496 335.003 134.182 330.537 131.555C326.097 128.902 322.682 125.224 320.291 120.521C317.927 115.819 316.745 110.407 316.745 104.285C316.745 98.0853 317.94 92.6472 320.331 87.9708C322.748 83.2682 326.176 79.6034 330.616 76.9762C335.056 74.3228 340.336 72.9961 346.458 72.9961C351.738 72.9961 356.362 73.955 360.329 75.8728C364.296 77.7906 367.435 80.4834 369.747 83.9513C372.059 87.4191 373.333 91.4912 373.57 96.1675H357.728C357.282 93.1463 356.099 90.7162 354.182 88.8772C352.29 87.0119 349.807 86.0793 346.734 86.0793C344.133 86.0793 341.86 86.7886 339.916 88.2073C337.998 89.5997 336.501 91.6357 335.424 94.3154C334.347 96.9951 333.808 100.24 333.808 104.049C333.808 107.911 334.333 111.195 335.384 113.901C336.461 116.607 337.972 118.669 339.916 120.088C341.86 121.506 344.133 122.216 346.734 122.216C348.651 122.216 350.372 121.822 351.896 121.033C353.446 120.245 354.72 119.103 355.718 117.605C356.743 116.081 357.413 114.255 357.728 112.127H373.57C373.307 116.751 372.046 120.823 369.787 124.344C367.554 127.838 364.467 130.57 360.526 132.54C356.585 134.511 351.922 135.496 346.536 135.496Z" fill="black"/>
<path d="M257.555 134.314H239.27L267.131 53.6077H289.12L316.942 134.314H298.657L278.441 72.0503H277.81L257.555 134.314ZM256.412 102.591H299.602V115.911H256.412V102.591Z" fill="black"/>
<path fill-rule="evenodd" clip-rule="evenodd" d="M672.69 73.7842V134.314H689.478V73.7842H672.69Z" fill="black"/>
<path d="M681.124 65.9816C678.628 65.9816 676.487 65.154 674.7 63.4989C672.94 61.8176 672.06 59.8078 672.06 57.4696C672.06 55.1577 672.94 53.1742 674.7 51.5191C676.487 49.8378 678.628 48.9971 681.124 48.9971C683.619 48.9971 685.747 49.8378 687.508 51.5191C689.294 53.1742 690.187 55.1577 690.187 57.4696C690.187 59.8078 689.294 61.8176 687.508 63.4989C685.747 65.154 683.619 65.9816 681.124 65.9816Z" fill="#CC0000"/>
</g>
<defs>
<radialGradient id="paint0_angular_1085_2837" cx="0" cy="0" r="1" gradientUnits="userSpaceOnUse" gradientTransform="translate(141.982 48.5487) rotate(-68.478) scale(114.534)">
<stop offset="0.340508" stop-color="#0A0808"/>
<stop offset="0.73" stop-color="#CC0000"/>
</radialGradient>
<clipPath id="clip0_1085_2837">
<rect width="822.152" height="207.27" fill="white"/>
</clipPath>
</defs>
</svg>
